<mxfile host="app.diagrams.net" modified="2020-06-02T08:50:08.557Z" agent="5.0 (Macintosh; Intel Mac OS X 10_15_5) AppleWebKit/605.1.15 (KHTML, like Gecko) Version/13.1.1 Safari/605.1.15" etag="gF2KdUJVrmBvGSihDlVr" version="13.1.12" type="github">
  <diagram id="pXQU6KLfbKZWgmnEuELY" name="Page-1">
    <mxGraphModel dx="946" dy="639" grid="1" gridSize="10" guides="1" tooltips="1" connect="1" arrows="1" fold="1" page="1" pageScale="1" pageWidth="827" pageHeight="1169" math="0" shadow="0">
      <root>
        <mxCell id="0" />
        <mxCell id="1" parent="0" />
        <mxCell id="WSkAKsyiYJzsZ52Cib1o-1" value="测试" style="whiteSpace=wrap;html=1;" vertex="1" parent="1">
          <mxGeometry x="190" y="220" width="120" height="60" as="geometry" />
        </mxCell>
      </root>
    </mxGraphModel>
  </diagram>
</mxfile>
